<svg fill="#000000" xmlns="http://www.w3.org/2000/svg" xmlns:xlink="http://www.w3.org/1999/xlink" version="1.1" x="0px" y="0px" viewBox="0 0 100 100" enable-background="new 0 0 100 100" xml:space="preserve"><path d="M97.4,53.4H87.3c-0.6,0-1.1,0.5-1.1,1.1v0.7c0,1-0.8,1.8-1.8,1.8H34.7c-1,0-1.8-0.8-1.8-1.8v-1V40H22.5v-3.4h10.4v-1.9v-1.3  c0-0.8-0.7-1.5-1.5-1.5h-0.5c-0.6,0-1.1-0.5-1.1-1.1v-2.1c0-0.8-0.6-1.4-1.4-1.4H26c-0.8,0-1.4,0.6-1.4,1.4v2.1  c0,0.6-0.5,1.1-1.1,1.1H23c-0.6,0-1.1-0.5-1.1-1.1v-11c0-0.8-0.6-1.4-1.4-1.4h-2.2c-0.8,0-1.4,0.6-1.4,1.4v11c0,0.6-0.5,1.1-1.1,1.1  h-1.1c-0.8,0-1.5,0.7-1.5,1.5v18.1c0,1-0.8,1.8-1.8,1.8H3c-0.9,0-1.7,0.8-1.5,1.8l4.2,26.7C5.9,83.1,7,84,8.2,84h69.4  c0.9,0,1.7-0.4,2.1-1.1l18.5-27.8C98.8,54.4,98.2,53.4,97.4,53.4z M19.4,69.6c-1.5,0-2.8-1.3-2.8-2.8c0-1.5,1.3-2.8,2.8-2.8  s2.8,1.3,2.8,2.8C22.2,68.3,21,69.6,19.4,69.6z M37.4,69.6c-1.5,0-2.8-1.3-2.8-2.8c0-1.5,1.3-2.8,2.8-2.8s2.8,1.3,2.8,2.8  C40.1,68.3,38.9,69.6,37.4,69.6z M52.8,69.6c-1.5,0-2.8-1.3-2.8-2.8c0-1.5,1.3-2.8,2.8-2.8s2.8,1.3,2.8,2.8  C55.6,68.3,54.3,69.6,52.8,69.6z M68.2,69.6c-1.5,0-2.8-1.3-2.8-2.8c0-1.5,1.3-2.8,2.8-2.8c1.5,0,2.8,1.3,2.8,2.8  C71,68.3,69.7,69.6,68.2,69.6z"/><path d="M56.7,45H41.9c-0.8,0-1.5,0.7-1.5,1.5V54c0,0.8,0.7,1.5,1.5,1.5h14.8c0.8,0,1.5-0.7,1.5-1.5v-7.5C58.2,45.7,57.6,45,56.7,45  z"/><path d="M76.3,45H61.4c-0.8,0-1.5,0.7-1.5,1.5V54c0,0.8,0.7,1.5,1.5,1.5h14.8c0.8,0,1.5-0.7,1.5-1.5v-7.5C77.8,45.7,77.1,45,76.3,45  z"/><path d="M56.7,32.9H41.9c-0.8,0-1.5,0.7-1.5,1.5v7.5c0,0.8,0.7,1.5,1.5,1.5h14.8c0.8,0,1.5-0.7,1.5-1.5v-7.5  C58.2,33.5,57.6,32.9,56.7,32.9z"/><path d="M76.3,32.9H61.4c-0.8,0-1.5,0.7-1.5,1.5v7.5c0,0.8,0.7,1.5,1.5,1.5h14.8c0.8,0,1.5-0.7,1.5-1.5v-7.5  C77.8,33.5,77.1,32.9,76.3,32.9z"/></svg>